<svg xmlns="http://www.w3.org/2000/svg" viewBox="0 0 535 126" width="535" height="126" class="logo" aria-hidden="true">
  <path class="logo-ink" d="M61.12 55.52Q64.25 56.58 67.22 60.06Q70.18 63.53 73.17 69.6L83.06 89.28H72.59L63.38 70.81Q59.81 63.58 56.46 61.21Q53.11 58.85 47.32 58.85H36.71V89.28H26.97V17.28H48.96Q61.31 17.28 67.39 22.44Q73.46 27.6 73.46 38.02Q73.46 44.82 70.3 49.3Q67.14 53.79 61.12 55.52ZM36.71 25.29V50.84H48.96Q56 50.84 59.6 47.59Q63.19 44.33 63.19 38.02Q63.19 31.7 59.6 28.49Q56 25.29 48.96 25.29ZM142.28 60.06V64.4H101.48Q102.06 73.56 107 78.36Q111.94 83.16 120.77 83.16Q125.88 83.16 130.68 81.9Q135.48 80.65 140.2 78.14V86.53Q135.43 88.56 130.41 89.62Q125.4 90.68 120.24 90.68Q107.31 90.68 99.76 83.16Q92.22 75.63 92.22 62.8Q92.22 49.54 99.38 41.75Q106.54 33.97 118.69 33.97Q129.59 33.97 135.93 40.98Q142.28 48 142.28 60.06ZM133.4 57.45Q133.31 50.17 129.33 45.83Q125.35 41.49 118.79 41.49Q111.36 41.49 106.9 45.68Q102.44 49.88 101.77 57.5ZM157.7 14.24H166.58V89.28H157.7ZM210.55 62.13Q199.8 62.13 195.65 64.59Q191.5 67.05 191.5 72.98Q191.5 77.71 194.62 80.48Q197.73 83.25 203.08 83.25Q210.46 83.25 214.92 78.02Q219.38 72.79 219.38 64.11V62.13ZM228.25 58.46V89.28H219.38V81.08Q216.34 86 211.81 88.34Q207.27 90.68 200.72 90.68Q192.42 90.68 187.53 86.02Q182.63 81.37 182.63 73.56Q182.63 64.44 188.73 59.81Q194.83 55.18 206.94 55.18H219.38V54.32Q219.38 48.19 215.35 44.84Q211.33 41.49 204.04 41.49Q199.41 41.49 195.03 42.6Q190.64 43.71 186.59 45.93V37.73Q191.46 35.85 196.04 34.91Q200.62 33.97 204.96 33.97Q216.68 33.97 222.47 40.04Q228.25 46.12 228.25 58.46ZM256.17 19.93V35.27H274.45V42.16H256.17V71.48Q256.17 78.09 257.98 79.97Q259.79 81.85 265.33 81.85H274.45V89.28H265.33Q255.06 89.28 251.16 85.45Q247.25 81.61 247.25 71.48V42.16H240.74V35.27H247.25V19.93ZM286.98 35.27H295.86V89.28H286.98ZM286.98 14.24H295.86V25.48H286.98ZM336.22 41.49Q329.08 41.49 324.93 47.06Q320.78 52.63 320.78 62.32Q320.78 72.02 324.91 77.59Q329.03 83.16 336.22 83.16Q343.31 83.16 347.45 77.56Q351.6 71.97 351.6 62.32Q351.6 52.73 347.45 47.11Q343.31 41.49 336.22 41.49ZM336.22 33.97Q347.79 33.97 354.4 41.49Q361 49.01 361 62.32Q361 75.58 354.4 83.13Q347.79 90.68 336.22 90.68Q324.59 90.68 318.01 83.13Q311.43 75.58 311.43 62.32Q311.43 49.01 318.01 41.49Q324.59 33.97 336.22 33.97ZM421.47 56.68V89.28H412.6V56.97Q412.6 49.3 409.61 45.49Q406.62 41.68 400.64 41.68Q393.46 41.68 389.31 46.26Q385.16 50.84 385.16 58.75V89.28H376.24V35.27H385.16V43.66Q388.34 38.79 392.66 36.38Q396.98 33.97 402.62 33.97Q411.93 33.97 416.7 39.73Q421.47 45.49 421.47 56.68Z"/>
  <path d="M 438.336 17.28 L 438.336 84.4092 L 476.327 84.4092 M 476.327 84.4092 L 518.087 59.9292 M 476.327 84.4092 L 518.087 84.4092 M 476.327 84.4092 L 518.087 108.889" fill="none" class="logo-mark" stroke-width="9.7416" stroke-linecap="butt" stroke-linejoin="miter"/>
</svg>
